<?xml version="1.0" standalone="no"?>
<!DOCTYPE svg PUBLIC "-//W3C//DTD SVG 20010904//EN"
 "http://www.w3.org/TR/2001/REC-SVG-20010904/DTD/svg10.dtd">
<svg version="1.0" xmlns="http://www.w3.org/2000/svg"
 width="512.000000pt" height="512.000000pt" viewBox="0 0 512.000000 512.000000"
 preserveAspectRatio="xMidYMid meet">

<g transform="translate(0.000000,512.000000) scale(0.100000,-0.100000)"
fill="#000000" stroke="none">
<path d="M2376 4941 c-3 -4 -3 -76 1 -160 l6 -151 46 0 c25 0 83 3 129 7 l82
6 0 39 0 38 -82 -2 c-70 -3 -83 -1 -86 14 -3 13 9 17 72 23 l76 7 0 34 0 34
-75 0 c-68 0 -75 2 -75 20 0 18 7 20 80 20 l80 0 0 40 0 40 -124 0 c-69 0
-127 -4 -130 -9z"/>
<path d="M2746 4899 c-4 -24 -13 -93 -22 -153 -8 -59 -14 -109 -12 -111 2 -1
22 -5 46 -8 48 -6 47 -7 57 66 l6 48 42 -3 42 -3 -3 -59 c-4 -66 3 -76 55 -76
26 0 32 4 37 28 10 51 38 273 34 276 -1 2 -22 6 -45 10 -46 7 -49 4 -55 -69
-3 -28 -5 -30 -43 -27 -22 2 -43 6 -47 10 -3 4 -3 27 2 52 4 25 7 47 5 49 -2
2 -24 6 -49 8 l-44 5 -6 -43z"/>
<path d="M2110 4908 c-58 -11 -105 -20 -106 -21 -1 -1 1 -19 3 -39 l5 -38 46
3 45 2 20 -105 c11 -58 21 -107 23 -109 2 -2 23 0 47 3 l44 7 -19 111 c-22
119 -20 128 29 128 28 0 36 14 28 50 -8 36 -15 36 -165 8z"/>
<path d="M3145 4857 c-4 -12 -24 -77 -46 -144 -21 -67 -39 -124 -39 -127 0 -7
79 -31 84 -25 2 2 14 38 28 79 l25 75 12 -60 c26 -124 29 -132 63 -144 17 -6
37 -11 44 -11 7 0 31 58 58 144 25 79 46 146 46 149 0 2 -12 7 -27 10 -16 3
-35 8 -44 12 -13 5 -20 -10 -39 -72 -26 -87 -30 -85 -50 35 -6 39 -13 72 -13
72 -1 0 -23 7 -49 14 -46 14 -47 14 -53 -7z"/>
<path d="M1863 4847 c-43 -16 -45 -19 -34 -53 6 -16 26 -82 46 -146 l36 -117
44 16 c25 8 45 16 45 17 0 2 -4 16 -9 32 -6 16 -26 82 -46 147 -20 64 -39 117
-43 116 -4 0 -21 -6 -39 -12z"/>
<path d="M1542 4724 c-19 -8 -32 -20 -29 -27 3 -7 31 -71 62 -144 l57 -132 32
13 c17 7 65 28 107 46 l77 33 -13 31 c-7 17 -17 32 -23 34 -5 1 -35 -8 -66
-22 -65 -29 -53 -39 -111 97 -21 48 -42 87 -49 86 -6 0 -26 -7 -44 -15z"/>
<path d="M3501 4698 c-11 -24 -39 -86 -64 -139 l-45 -96 43 -21 42 -21 67 141
c36 78 65 142 64 143 -10 9 -69 35 -78 35 -6 0 -19 -19 -29 -42z"/>
<path d="M1290 4588 c-93 -47 -120 -154 -60 -236 16 -23 43 -48 59 -57 64 -33
160 -8 205 52 59 80 5 224 -95 253 -48 14 -59 13 -109 -12z m91 -78 c23 -13
49 -61 49 -91 0 -28 -27 -59 -52 -59 -34 0 -59 20 -78 62 -33 74 13 124 81 88z"/>
<path d="M3684 4591 c-39 -24 -70 -63 -85 -108 -43 -130 112 -252 226 -177 34
22 31 35 -10 62 -32 20 -38 21 -58 8 -29 -19 -64 -5 -73 28 -8 33 24 96 58
116 38 21 78 1 78 -39 0 -23 8 -34 35 -51 19 -12 39 -19 45 -15 19 12 12 100
-11 129 -48 61 -145 83 -205 47z"/>
<path d="M1013 4373 c-17 -10 -58 -43 -91 -74 l-61 -55 101 -112 c55 -62 106
-112 112 -112 7 0 24 13 39 28 l27 28 -30 35 -29 36 30 29 c83 78 72 167 -24
203 -37 14 -37 14 -74 -6z m57 -88 c11 -13 11 -20 0 -40 -18 -34 -40 -39 -64
-15 l-21 21 30 25 c35 28 39 29 55 9z"/>
<path d="M3963 4296 c-73 -40 -135 -75 -138 -78 -3 -3 11 -18 31 -33 30 -23
40 -26 55 -17 15 10 24 7 54 -20 30 -26 35 -36 30 -58 -5 -23 0 -32 27 -53 18
-15 36 -23 40 -19 3 4 32 71 63 150 l58 143 -29 30 c-15 16 -35 29 -43 28 -9
0 -76 -33 -148 -73z m93 -80 c-17 -41 -22 -43 -48 -19 -18 16 -18 18 19 40 20
12 39 21 41 19 2 -2 -4 -20 -12 -40z"/>
<path d="M410 3938 c-215 -339 -341 -698 -391 -1109 -11 -96 -7 -509 6 -594
49 -326 120 -554 254 -820 204 -403 502 -741 866 -980 115 -75 244 -150 249
-144 1 2 66 128 143 279 l141 275 -97 57 c-53 31 -134 84 -181 119 -84 62
-340 310 -340 329 0 7 517 10 1500 10 983 0 1500 -3 1500 -10 0 -18 -254 -265
-335 -325 -44 -33 -126 -87 -182 -121 l-101 -60 32 -60 c18 -32 81 -153 140
-269 59 -116 111 -213 115 -218 9 -9 213 112 328 194 423 306 748 744 921
1244 39 115 94 335 107 435 4 25 9 59 11 75 13 72 16 492 5 584 -15 125 -48
298 -73 386 -11 39 -24 86 -30 105 -28 101 -90 251 -158 385 -72 142 -176 315
-198 329 -9 5 -433 -288 -494 -341 -15 -14 -13 -20 27 -82 148 -229 245 -481
291 -762 32 -187 20 -564 -22 -701 -5 -17 -26 -18 -250 -18 l-244 0 0 45 c0
45 0 45 35 45 35 0 35 0 35 45 0 45 0 45 -35 45 l-35 0 2 253 3 252 33 3 c30
3 32 6 32 43 0 37 -2 39 -30 39 l-30 0 0 90 c0 89 0 90 25 90 23 0 25 4 25 40
0 33 3 40 20 40 18 0 20 7 20 65 l0 65 -153 0 -153 0 -54 56 c-192 197 -498
345 -810 390 -86 13 -111 21 -140 43 -20 16 -55 38 -78 50 l-43 22 -52 -26
c-29 -15 -63 -37 -77 -50 -19 -18 -44 -26 -110 -35 -321 -42 -627 -187 -833
-392 l-59 -58 -176 0 -177 0 0 -65 c0 -64 0 -65 28 -65 25 0 27 -3 27 -40 l0
-40 55 0 55 0 0 -90 0 -90 -80 0 -80 0 0 -40 c0 -36 3 -40 25 -40 l25 0 0
-254 0 -255 -22 -3 c-19 -2 -24 -10 -26 -45 -3 -40 -1 -43 22 -43 24 0 26 -3
26 -45 l0 -45 -254 0 c-207 0 -255 3 -259 14 -21 53 -41 260 -41 416 0 252 34
447 119 676 41 110 137 298 197 387 22 32 38 60 36 61 -64 50 -499 356 -505
356 -4 0 -37 -46 -73 -102z m2069 -202 c-2 -3 -59 -23 -127 -45 -198 -65 -373
-155 -498 -257 -39 -32 -70 -47 -130 -62 -43 -12 -99 -28 -123 -37 -24 -8 -46
-14 -48 -11 -7 7 111 108 181 155 200 134 393 208 636 245 116 17 114 17 109
12z m550 -46 c178 -45 329 -113 471 -211 88 -61 207 -165 179 -156 -9 3 -68
20 -130 37 -83 24 -125 41 -154 65 -71 57 -198 136 -291 180 -89 42 -290 115
-319 115 -7 0 -16 4 -19 8 -7 12 166 -13 263 -38z m-519 -47 c-52 -49 -106
-106 -122 -128 l-29 -40 -107 -11 c-59 -7 -109 -10 -111 -8 -15 14 122 119
229 176 67 35 208 97 224 98 5 0 -33 -39 -84 -87z m200 61 c152 -61 280 -138
353 -210 21 -20 36 -38 35 -39 -2 -1 -54 2 -115 8 -98 9 -114 13 -119 30 -3
11 -56 69 -116 128 -61 60 -108 109 -106 109 3 0 33 -12 68 -26z m1958 -39
c53 -108 39 -172 -49 -219 -65 -36 -128 -35 -168 2 -34 31 -98 145 -85 150 5
1 63 32 129 66 66 35 125 64 130 65 6 1 25 -28 43 -64z m-2170 50 c-3 -3 -42
-23 -86 -45 -112 -54 -185 -102 -252 -166 l-57 -54 -129 -24 -128 -23 29 24
c115 93 334 205 505 257 126 38 126 38 118 31z m188 -57 c54 -49 120 -118 153
-160 13 -17 1 -18 -218 -18 -164 0 -231 3 -231 11 0 17 207 219 223 219 8 0
41 -24 73 -52z m179 23 c180 -59 351 -144 474 -238 51 -39 50 -39 -98 -13
-111 20 -115 21 -148 60 -42 49 -175 138 -274 184 -91 43 -72 45 46 7z m-2198
-157 c49 -5 52 -7 43 -25 -8 -15 -22 -19 -60 -19 -49 0 -49 0 -70 -46 -26 -60
-26 -62 11 -100 29 -30 35 -64 12 -64 -5 0 -58 51 -120 113 -97 98 -110 115
-102 134 8 22 11 22 121 17 62 -3 137 -7 165 -10z m1695 -72 c2 -4 41 -39 87
-77 l83 -70 -60 -3 c-57 -3 -67 1 -194 65 -85 43 -126 68 -113 70 16 3 93 12
182 22 6 0 13 -3 15 -7z m487 1 c0 -5 -39 -41 -87 -80 -86 -71 -88 -73 -144
-73 -56 0 -60 2 -130 62 -131 110 -147 98 125 98 130 0 237 -3 236 -7z m191
-12 l55 -7 -132 -67 c-120 -61 -139 -67 -193 -67 -33 0 -60 3 -59 8 0 4 39 39
87 78 96 79 81 75 242 55z m1740 -30 c0 -11 -14 -22 -37 -30 -21 -8 -82 -31
-136 -52 -99 -39 -121 -41 -115 -11 3 16 266 125 280 116 5 -3 8 -13 8 -23z
m-2545 -43 c77 -39 120 -65 112 -70 -7 -4 -48 -8 -92 -8 -63 0 -109 8 -225 41
-80 23 -151 45 -159 49 -8 4 28 14 85 24 55 10 104 19 109 21 27 9 54 0 170
-57z m1022 41 c63 -12 111 -25 106 -29 -4 -4 -75 -26 -158 -49 -117 -32 -167
-41 -227 -41 -127 0 -125 6 13 76 68 34 130 63 138 63 8 1 66 -9 128 -20z
m-1308 -74 c68 -18 126 -36 129 -39 8 -8 -316 -7 -418 1 l-85 7 100 32 c55 18
111 33 125 33 14 1 81 -15 149 -34z m1621 -2 l85 -27 -75 -7 c-99 -8 -425 -11
-417 -3 3 3 57 21 119 40 131 38 162 38 288 -3z m-3230 -10 c0 -10 -9 -47 -20
-82 -11 -35 -19 -65 -18 -66 6 -4 71 -25 79 -25 4 0 15 26 24 58 9 31 18 64
21 73 3 11 12 15 24 12 11 -3 20 -6 20 -7 0 0 -9 -30 -20 -64 -11 -35 -20 -69
-20 -76 0 -15 75 -40 90 -31 6 3 10 12 10 19 0 20 32 119 42 131 5 5 12 5 20
-3 14 -14 -39 -202 -57 -202 -14 0 -274 76 -280 82 -3 3 36 146 50 186 7 18
35 14 35 -5z m4490 -42 c0 -7 -33 -50 -72 -95 -127 -141 -126 -129 -3 -96 110
30 128 30 123 2 -4 -22 -278 -97 -290 -79 -15 23 -8 35 78 131 48 53 84 99 82
101 -2 3 -45 -6 -94 -20 -108 -30 -124 -31 -124 -6 0 15 21 24 118 50 64 18
128 36 142 40 26 8 40 -1 40 -28z m-800 -56 l0 -55 -1440 0 -1440 0 0 55 0 55
1440 0 1440 0 0 -55z m-40 -95 l0 -30 -1390 0 -1390 0 0 30 0 30 1390 0 1390
0 0 -30z m-3725 -99 c-8 -58 -15 -54 135 -77 75 -11 114 -22 117 -31 12 -32
-14 -34 -136 -12 -67 12 -125 19 -128 15 -3 -3 -9 -23 -12 -43 -5 -28 -12 -39
-27 -41 l-20 -3 20 121 c17 105 22 120 39 120 17 0 18 -5 12 -49z m1085 -11
l0 -60 80 0 80 0 0 60 c0 53 2 60 20 60 18 0 20 -7 20 -60 l0 -60 75 0 74 0 3
58 c3 49 6 57 23 57 18 0 20 -7 20 -57 l0 -58 77 0 77 0 3 57 c2 46 7 59 21
61 15 3 17 -5 17 -57 l0 -61 80 0 80 0 0 60 c0 53 2 60 20 60 18 0 20 -7 20
-60 l0 -60 80 0 80 0 0 60 c0 53 2 60 20 60 18 0 20 -7 20 -60 l0 -60 80 0 80
0 0 60 c0 53 2 60 20 60 18 0 20 -7 20 -60 l0 -60 80 0 80 0 0 60 c0 53 2 60
20 60 18 0 20 -7 20 -60 l0 -60 75 0 74 0 3 57 c2 46 7 59 21 61 15 3 17 -5
17 -57 l0 -61 80 0 79 0 3 57 c2 46 7 59 21 61 15 3 17 -5 17 -57 l0 -61 80 0
80 0 0 60 c0 53 2 60 20 60 18 0 20 -7 20 -60 l0 -60 80 0 80 0 0 60 c0 53 2
60 20 60 18 0 20 -7 20 -60 l0 -60 80 0 80 0 0 60 c0 53 2 60 20 60 18 0 20
-7 20 -60 l0 -60 80 0 80 0 0 60 c0 57 1 60 25 60 25 0 25 -1 25 -90 l0 -90
-1315 0 -1315 0 0 90 c0 83 1 90 20 90 18 0 20 -7 20 -60z m2658 -160 l3 -25
-1426 0 -1425 0 0 28 0 27 1423 -2 1422 -3 3 -25z m922 -105 c0 -84 -2 -96
-22 -115 -25 -23 -66 -26 -93 -6 -17 12 -21 11 -38 -10 -27 -34 -89 -33 -122
2 -19 20 -25 40 -30 110 -4 47 -5 87 -3 90 8 7 148 21 231 23 l77 1 0 -95z
m-3690 -430 c0 -433 -2 -495 -15 -495 -13 0 -15 62 -15 495 0 433 2 495 15
495 13 0 15 -62 15 -495z m60 390 c0 -98 -1 -105 -20 -105 -19 0 -20 7 -20
105 0 98 1 105 20 105 19 0 20 -7 20 -105z m40 -390 c0 -433 -2 -495 -15 -495
-13 0 -15 62 -15 495 0 433 2 495 15 495 13 0 15 -62 15 -495z m60 390 c0 -98
-1 -105 -20 -105 -19 0 -20 7 -20 105 0 98 1 105 20 105 19 0 20 -7 20 -105z
m50 -390 c0 -433 -2 -495 -15 -495 -13 0 -15 62 -15 495 0 433 2 495 15 495
13 0 15 -62 15 -495z m60 390 l0 -105 -25 0 -25 0 0 105 0 105 25 0 25 0 0
-105z m40 -390 c0 -433 -2 -495 -15 -495 -13 0 -15 62 -15 495 0 433 2 495 15
495 13 0 15 -62 15 -495z m60 390 c0 -98 -1 -105 -20 -105 -19 0 -20 7 -20
105 0 98 1 105 20 105 19 0 20 -7 20 -105z m50 -220 c0 -282 -2 -325 -15 -325
-13 0 -15 43 -15 325 0 282 2 325 15 325 13 0 15 -43 15 -325z m50 220 c0 -98
-1 -105 -20 -105 -19 0 -20 7 -20 105 0 98 1 105 20 105 19 0 20 -7 20 -105z
m50 -220 c0 -282 -2 -325 -15 -325 -13 0 -15 43 -15 325 0 282 2 325 15 325
13 0 15 -43 15 -325z m60 220 l0 -105 -25 0 -25 0 0 105 0 105 25 0 25 0 0
-105z m40 -220 c0 -282 -2 -325 -15 -325 -13 0 -15 43 -15 325 0 282 2 325 15
325 13 0 15 -43 15 -325z m60 220 c0 -98 -1 -105 -20 -105 -19 0 -20 7 -20
105 0 98 1 105 20 105 19 0 20 -7 20 -105z m50 -220 c0 -282 -2 -325 -15 -325
-13 0 -15 43 -15 325 0 282 2 325 15 325 13 0 15 -43 15 -325z m50 220 c0 -98
-1 -105 -20 -105 -19 0 -20 7 -20 105 0 98 1 105 20 105 19 0 20 -7 20 -105z
m50 -220 c0 -282 -2 -325 -15 -325 -13 0 -15 43 -15 325 0 282 2 325 15 325
13 0 15 -43 15 -325z m60 220 c0 -98 -1 -105 -20 -105 -19 0 -20 7 -20 105 0
98 1 105 20 105 19 0 20 -7 20 -105z m40 -220 c0 -282 -2 -325 -15 -325 -13 0
-15 43 -15 325 0 282 2 325 15 325 13 0 15 -43 15 -325z m60 220 c0 -98 -1
-105 -20 -105 -19 0 -20 7 -20 105 0 98 1 105 20 105 19 0 20 -7 20 -105z m50
-390 c0 -433 -2 -495 -15 -495 -13 0 -15 62 -15 495 0 433 2 495 15 495 13 0
15 -62 15 -495z m60 390 l0 -105 -25 0 -25 0 0 105 0 105 25 0 25 0 0 -105z
m40 -390 c0 -433 -2 -495 -15 -495 -13 0 -15 62 -15 495 0 433 2 495 15 495
13 0 15 -62 15 -495z m60 390 c0 -98 -1 -105 -20 -105 -19 0 -20 7 -20 105 0
98 1 105 20 105 19 0 20 -7 20 -105z m40 -77 c0 -101 0 -316 0 -478 1 -162 1
-303 0 -312 0 -10 -7 -18 -15 -18 -13 0 -15 62 -15 495 0 433 2 495 15 495 13
0 15 -27 15 -182z m60 77 c0 -98 -1 -105 -20 -105 -19 0 -20 7 -20 105 0 98 1
105 20 105 19 0 20 -7 20 -105z m50 -390 c0 -433 -2 -495 -15 -495 -13 0 -15
62 -15 495 0 433 2 495 15 495 13 0 15 -62 15 -495z m60 390 l0 -105 -25 0
-25 0 0 105 0 105 25 0 25 0 0 -105z m40 -390 c0 -433 -2 -495 -15 -495 -13 0
-15 62 -15 495 0 433 2 495 15 495 13 0 15 -62 15 -495z m60 390 c0 -98 -1
-105 -20 -105 -19 0 -20 7 -20 105 0 98 1 105 20 105 19 0 20 -7 20 -105z m50
-390 c0 -433 -2 -495 -15 -495 -13 0 -15 62 -15 495 0 433 2 495 15 495 13 0
15 -62 15 -495z m60 390 l0 -105 -25 0 -25 0 0 105 0 105 25 0 25 0 0 -105z
m40 -390 c0 -433 -2 -495 -15 -495 -13 0 -15 62 -15 495 0 433 2 495 15 495
13 0 15 -62 15 -495z m60 390 c0 -98 -1 -105 -20 -105 -19 0 -20 7 -20 105 0
98 1 105 20 105 19 0 20 -7 20 -105z m45 -390 c0 -429 -2 -490 -15 -490 -13 0
-15 63 -18 493 -2 466 -1 493 15 490 17 -3 18 -34 18 -493z m55 390 c0 -98 -1
-105 -20 -105 -19 0 -20 7 -20 105 0 98 1 105 20 105 19 0 20 -7 20 -105z m50
-390 c0 -433 -2 -495 -15 -495 -13 0 -15 62 -15 495 0 433 2 495 15 495 13 0
15 -62 15 -495z m60 390 l0 -105 -25 0 -25 0 0 105 0 105 25 0 25 0 0 -105z
m40 -390 c0 -433 -2 -495 -15 -495 -13 0 -15 62 -15 495 0 433 2 495 15 495
13 0 15 -62 15 -495z m60 390 c0 -98 -1 -105 -20 -105 -19 0 -20 7 -20 105 0
98 1 105 20 105 19 0 20 -7 20 -105z m48 -387 c-2 -382 -6 -492 -15 -496 -10
-3 -13 100 -13 492 0 436 2 496 15 496 13 0 15 -59 13 -492z m52 387 c0 -98
-1 -105 -20 -105 -19 0 -20 7 -20 105 0 98 1 105 20 105 19 0 20 -7 20 -105z
m50 -390 c0 -433 -2 -495 -15 -495 -13 0 -15 62 -15 495 0 433 2 495 15 495
13 0 15 -62 15 -495z m60 389 c0 -104 0 -105 -22 -102 -22 3 -23 8 -26 91 -4
102 0 117 28 117 19 0 20 -6 20 -106z m40 -389 c0 -433 -2 -495 -15 -495 -13
0 -15 62 -15 495 0 433 2 495 15 495 13 0 15 -62 15 -495z m60 390 c0 -98 -1
-105 -20 -105 -19 0 -20 7 -20 105 0 98 1 105 20 105 19 0 20 -7 20 -105z m50
-390 c0 -433 -2 -495 -15 -495 -13 0 -15 62 -15 495 0 433 2 495 15 495 13 0
15 -62 15 -495z m50 390 c0 -98 -1 -105 -20 -105 -19 0 -20 7 -20 105 0 98 1
105 20 105 19 0 20 -7 20 -105z m50 -390 c0 -433 -2 -495 -15 -495 -13 0 -15
62 -15 495 0 433 2 495 15 495 13 0 15 -62 15 -495z m60 390 c0 -98 -1 -105
-20 -105 -19 0 -20 7 -20 105 0 98 1 105 20 105 19 0 20 -7 20 -105z m40 -390
c0 -433 -2 -495 -15 -495 -13 0 -15 62 -15 495 0 433 2 495 15 495 13 0 15
-62 15 -495z m60 390 c0 -98 -1 -105 -20 -105 -19 0 -20 7 -20 105 0 98 1 105
20 105 19 0 20 -7 20 -105z m50 -390 c0 -433 -2 -495 -15 -495 -13 0 -15 62
-15 495 0 433 2 495 15 495 13 0 15 -62 15 -495z m-3442 453 c-2 -18 -14 -26
-50 -37 l-48 -15 0 -63 0 -64 44 -19 c36 -15 44 -22 39 -39 -3 -12 -6 -21 -7
-21 0 0 -66 29 -146 65 -142 63 -167 82 -141 109 12 11 274 104 299 105 8 1
12 -8 10 -21z m802 -208 c0 -15 -7 -20 -25 -20 -24 0 -34 18 -18 33 15 15 43
7 43 -13z m100 0 c0 -13 -7 -20 -20 -20 -13 0 -20 7 -20 20 0 13 7 20 20 20
13 0 20 -7 20 -20z m110 0 c0 -15 -7 -20 -25 -20 -18 0 -25 5 -25 20 0 15 7
20 25 20 18 0 25 -5 25 -20z m100 0 c0 -13 -7 -20 -20 -20 -13 0 -20 7 -20 20
0 13 7 20 20 20 13 0 20 -7 20 -20z m100 0 c0 -13 -7 -20 -20 -20 -13 0 -20 7
-20 20 0 13 7 20 20 20 13 0 20 -7 20 -20z m110 0 c0 -15 -7 -20 -25 -20 -18
0 -25 5 -25 20 0 15 7 20 25 20 18 0 25 -5 25 -20z m100 0 c0 -13 -7 -20 -20
-20 -13 0 -20 7 -20 20 0 13 7 20 20 20 13 0 20 -7 20 -20z m100 0 c0 -13 -7
-20 -20 -20 -13 0 -20 7 -20 20 0 13 7 20 20 20 13 0 20 -7 20 -20z m110 0 c0
-15 -7 -20 -25 -20 -24 0 -34 18 -18 33 15 15 43 7 43 -13z m100 0 c0 -13 -7
-20 -20 -20 -13 0 -20 7 -20 20 0 13 7 20 20 20 13 0 20 -7 20 -20z m110 0 c0
-15 -7 -20 -25 -20 -18 0 -25 5 -25 20 0 15 7 20 25 20 18 0 25 -5 25 -20z
m100 0 c0 -13 -7 -20 -20 -20 -13 0 -20 7 -20 20 0 13 7 20 20 20 13 0 20 -7
20 -20z m100 0 c0 -13 -7 -20 -20 -20 -13 0 -20 7 -20 20 0 13 7 20 20 20 13
0 20 -7 20 -20z m110 0 c0 -15 -7 -20 -25 -20 -18 0 -25 5 -25 20 0 15 7 20
25 20 18 0 25 -5 25 -20z m100 0 c0 -13 -7 -20 -20 -20 -13 0 -20 7 -20 20 0
13 7 20 20 20 13 0 20 -7 20 -20z m110 0 c0 -15 -7 -20 -25 -20 -18 0 -25 5
-25 20 0 15 7 20 25 20 18 0 25 -5 25 -20z m100 0 c0 -13 -7 -20 -20 -20 -13
0 -20 7 -20 20 0 13 7 20 20 20 13 0 20 -7 20 -20z m100 0 c0 -13 -7 -20 -20
-20 -13 0 -20 7 -20 20 0 13 7 20 20 20 13 0 20 -7 20 -20z m110 0 c0 -15 -7
-20 -25 -20 -18 0 -25 5 -25 20 0 15 7 20 25 20 18 0 25 -5 25 -20z m100 0 c0
-13 -7 -20 -20 -20 -13 0 -20 7 -20 20 0 13 7 20 20 20 13 0 20 -7 20 -20z
m100 0 c0 -13 -7 -20 -20 -20 -13 0 -20 7 -20 20 0 13 7 20 20 20 13 0 20 -7
20 -20z m110 0 c0 -15 -7 -20 -25 -20 -24 0 -34 18 -18 33 15 15 43 7 43 -13z
m100 0 c0 -13 -7 -20 -20 -20 -13 0 -20 7 -20 20 0 13 7 20 20 20 13 0 20 -7
20 -20z m108 -2 c3 -13 -3 -18 -22 -18 -20 0 -26 5 -26 21 0 15 5 20 22 17 13
-2 24 -11 26 -20z m102 2 c0 -23 -35 -28 -43 -6 -7 18 1 26 25 26 11 0 18 -7
18 -20z m100 0 c0 -13 -7 -20 -20 -20 -13 0 -20 7 -20 20 0 13 7 20 20 20 13
0 20 -7 20 -20z m1028 -35 c14 -4 22 -13 22 -27 0 -20 -2 -21 -115 -14 -113 7
-115 7 -140 -18 -46 -46 -24 -121 38 -130 18 -3 71 -8 120 -12 77 -5 87 -8 87
-25 0 -17 -8 -19 -72 -18 -130 1 -178 12 -210 48 -61 68 -22 189 66 203 25 4
176 -1 204 -7z m-3618 -15 c0 -5 -9 -10 -20 -10 -11 0 -20 5 -20 10 0 6 9 10
20 10 11 0 20 -4 20 -10z m100 0 c0 -5 -9 -10 -20 -10 -11 0 -20 5 -20 10 0 6
9 10 20 10 11 0 20 -4 20 -10z m105 0 c-3 -5 -15 -10 -26 -10 -10 0 -19 5 -19
10 0 6 12 10 26 10 14 0 23 -4 19 -10z m105 0 c0 -5 -9 -10 -20 -10 -11 0 -20
5 -20 10 0 6 9 10 20 10 11 0 20 -4 20 -10z m100 0 c0 -5 -9 -10 -20 -10 -11
0 -20 5 -20 10 0 6 9 10 20 10 11 0 20 -4 20 -10z m105 0 c-3 -5 -13 -10 -21
-10 -8 0 -14 5 -14 10 0 6 9 10 21 10 11 0 17 -4 14 -10z m105 0 c0 -5 -9 -10
-20 -10 -11 0 -20 5 -20 10 0 6 9 10 20 10 11 0 20 -4 20 -10z m100 0 c0 -5
-9 -10 -20 -10 -11 0 -20 5 -20 10 0 6 9 10 20 10 11 0 20 -4 20 -10z m110 0
c0 -5 -9 -10 -20 -10 -11 0 -20 5 -20 10 0 6 9 10 20 10 11 0 20 -4 20 -10z
m100 0 c0 -5 -9 -10 -20 -10 -11 0 -20 5 -20 10 0 6 9 10 20 10 11 0 20 -4 20
-10z m105 0 c-3 -5 -12 -10 -20 -10 -8 0 -17 5 -20 10 -4 6 5 10 20 10 15 0
24 -4 20 -10z m105 0 c0 -5 -9 -10 -20 -10 -11 0 -20 5 -20 10 0 6 9 10 20 10
11 0 20 -4 20 -10z m100 0 c0 -5 -9 -10 -20 -10 -11 0 -20 5 -20 10 0 6 9 10
20 10 11 0 20 -4 20 -10z m110 0 c0 -5 -9 -10 -19 -10 -11 0 -23 5 -26 10 -4
6 5 10 19 10 14 0 26 -4 26 -10z m100 0 c0 -5 -9 -10 -20 -10 -11 0 -20 5 -20
10 0 6 9 10 20 10 11 0 20 -4 20 -10z m105 0 c-3 -5 -15 -10 -26 -10 -10 0
-19 5 -19 10 0 6 12 10 26 10 14 0 23 -4 19 -10z m105 0 c0 -5 -9 -10 -20 -10
-11 0 -20 5 -20 10 0 6 9 10 20 10 11 0 20 -4 20 -10z m100 0 c0 -5 -9 -10
-20 -10 -11 0 -20 5 -20 10 0 6 9 10 20 10 11 0 20 -4 20 -10z m105 0 c-3 -5
-12 -10 -20 -10 -8 0 -17 5 -20 10 -4 6 5 10 20 10 15 0 24 -4 20 -10z m105 0
c0 -5 -9 -10 -20 -10 -11 0 -20 5 -20 10 0 6 9 10 20 10 11 0 20 -4 20 -10z
m100 0 c0 -5 -9 -10 -20 -10 -11 0 -20 5 -20 10 0 6 9 10 20 10 11 0 20 -4 20
-10z m105 0 c-3 -5 -13 -10 -21 -10 -8 0 -14 5 -14 10 0 6 9 10 21 10 11 0 17
-4 14 -10z m105 0 c0 -5 -9 -10 -20 -10 -11 0 -20 5 -20 10 0 6 9 10 20 10 11
0 20 -4 20 -10z m100 0 c0 -5 -6 -10 -14 -10 -8 0 -18 5 -21 10 -3 6 3 10 14
10 12 0 21 -4 21 -10z m110 0 c0 -5 -9 -10 -20 -10 -11 0 -20 5 -20 10 0 6 9
10 20 10 11 0 20 -4 20 -10z m100 0 c0 -5 -9 -10 -20 -10 -11 0 -20 5 -20 10
0 6 9 10 20 10 11 0 20 -4 20 -10z m-3670 -61 l0 -50 43 5 c23 3 84 8 135 11
87 6 92 6 92 -14 0 -25 -12 -28 -147 -36 l-113 -7 0 -49 c0 -46 -13 -70 -30
-53 -4 5 -11 62 -14 127 -7 113 -6 117 14 117 17 0 20 -6 20 -51z m1075 11 c0
-16 -6 -26 -18 -28 -19 -4 -32 20 -23 44 9 25 41 13 41 -16z m103 3 c-2 -17
-10 -29 -20 -31 -14 -3 -18 3 -18 27 0 25 4 31 21 31 16 0 20 -5 17 -27z m107
-3 c0 -29 -32 -41 -41 -16 -9 24 4 48 23 44 12 -2 18 -12 18 -28z m103 3 c-2
-17 -10 -29 -20 -31 -14 -3 -18 3 -18 27 0 25 4 31 21 31 16 0 20 -5 17 -27z
m102 -3 c0 -23 -4 -30 -20 -30 -16 0 -20 7 -20 30 0 23 4 30 20 30 16 0 20 -7
20 -30z m105 0 c0 -29 -32 -41 -41 -16 -9 24 4 48 23 44 12 -2 18 -12 18 -28z
m105 0 c0 -23 -4 -30 -20 -30 -16 0 -20 7 -20 30 0 23 4 30 20 30 16 0 20 -7
20 -30z m100 0 c0 -32 -26 -43 -36 -15 -9 21 3 45 21 45 10 0 15 -10 15 -30z
m105 0 c0 -29 -32 -41 -41 -16 -9 24 4 48 23 44 12 -2 18 -12 18 -28z m105 -1
c0 -24 -4 -30 -17 -27 -11 2 -19 14 -21 31 -3 22 1 27 17 27 17 0 21 -6 21
-31z m105 1 c0 -29 -32 -41 -41 -16 -9 24 4 48 23 44 12 -2 18 -12 18 -28z
m103 3 c-2 -17 -10 -29 -20 -31 -14 -3 -18 3 -18 27 0 25 4 31 21 31 16 0 20
-5 17 -27z m102 -4 c0 -24 -4 -30 -17 -27 -11 2 -19 14 -21 31 -3 22 1 27 17
27 17 0 21 -6 21 -31z m105 1 c0 -16 -6 -26 -18 -28 -19 -4 -32 20 -23 44 9
25 41 13 41 -16z m103 3 c-2 -17 -10 -29 -20 -31 -14 -3 -18 3 -18 27 0 25 4
31 21 31 16 0 20 -5 17 -27z m107 -3 c0 -38 -39 -35 -43 3 -3 25 0 28 20 25
17 -2 23 -9 23 -28z m100 0 c0 -16 -6 -26 -17 -28 -14 -3 -18 3 -18 28 0 25 4
31 18 28 11 -2 17 -12 17 -28z m105 0 c0 -23 -4 -30 -20 -30 -16 0 -20 7 -20
30 0 23 4 30 20 30 16 0 20 -7 20 -30z m105 0 c0 -16 -6 -26 -18 -28 -19 -4
-32 20 -23 44 9 25 41 13 41 -16z m103 3 c-2 -17 -10 -29 -20 -31 -14 -3 -18
3 -18 27 0 25 4 31 21 31 16 0 20 -5 17 -27z m102 -4 c0 -24 -4 -30 -17 -27
-11 2 -19 14 -21 31 -3 22 1 27 17 27 17 0 21 -6 21 -31z m105 1 c0 -16 -6
-26 -18 -28 -19 -4 -32 20 -23 44 9 25 41 13 41 -16z m105 0 c0 -23 -4 -30
-20 -30 -16 0 -20 7 -20 30 0 23 4 30 20 30 16 0 20 -7 20 -30z m105 0 c0 -16
-6 -26 -18 -28 -19 -4 -32 20 -23 44 9 25 41 13 41 -16z m103 3 c-4 -33 -39
-40 -44 -9 -4 27 3 36 27 36 16 0 20 -6 17 -27z m102 -4 c0 -24 -4 -30 -17
-27 -11 2 -19 14 -21 31 -3 22 1 27 17 27 17 0 21 -6 21 -31z m-2590 -99 c0
-53 -2 -60 -20 -60 -18 0 -20 7 -20 60 0 53 2 60 20 60 18 0 20 -7 20 -60z
m100 0 c0 -53 -2 -60 -20 -60 -18 0 -20 7 -20 60 0 53 2 60 20 60 18 0 20 -7
20 -60z m108 -2 c3 -56 2 -58 -23 -58 -24 0 -25 2 -25 61 0 57 1 60 23 57 19
-3 22 -10 25 -60z m102 2 c0 -53 -2 -60 -20 -60 -18 0 -20 7 -20 60 0 53 2 60
20 60 18 0 20 -7 20 -60z m100 0 c0 -53 -2 -60 -20 -60 -18 0 -20 7 -20 60 0
53 2 60 20 60 18 0 20 -7 20 -60z m110 -1 c0 -57 -1 -60 -22 -57 -19 2 -24 10
-26 47 -4 55 2 71 28 71 18 0 20 -6 20 -61z m100 1 c0 -53 -2 -60 -20 -60 -18
0 -20 7 -20 60 0 53 2 60 20 60 18 0 20 -7 20 -60z m100 0 c0 -53 -2 -60 -20
-60 -18 0 -20 7 -20 60 0 53 2 60 20 60 18 0 20 -7 20 -60z m110 0 c0 -53 -2
-60 -20 -60 -18 0 -20 7 -20 60 0 53 2 60 20 60 18 0 20 -7 20 -60z m100 0 c0
-53 -2 -60 -20 -60 -18 0 -20 7 -20 60 0 53 2 60 20 60 18 0 20 -7 20 -60z
m108 -2 c3 -56 2 -58 -23 -58 -24 0 -25 2 -25 61 0 57 1 60 23 57 19 -3 22
-10 25 -60z m102 2 c0 -53 -2 -60 -20 -60 -18 0 -20 7 -20 60 0 53 2 60 20 60
18 0 20 -7 20 -60z m100 0 c0 -53 -2 -60 -20 -60 -18 0 -20 7 -20 60 0 53 2
60 20 60 18 0 20 -7 20 -60z m110 0 c0 -57 -1 -60 -25 -60 -24 0 -25 3 -25 53
0 58 4 67 32 67 15 0 18 -8 18 -60z m100 0 c0 -53 -2 -60 -20 -60 -18 0 -20 7
-20 60 0 53 2 60 20 60 18 0 20 -7 20 -60z m108 -2 c3 -56 2 -58 -23 -58 -24
0 -25 2 -25 61 0 57 1 60 23 57 19 -3 22 -10 25 -60z m102 2 c0 -53 -2 -60
-20 -60 -18 0 -20 7 -20 60 0 53 2 60 20 60 18 0 20 -7 20 -60z m100 0 c0 -53
-2 -60 -20 -60 -18 0 -20 7 -20 60 0 53 2 60 20 60 18 0 20 -7 20 -60z m108
-3 c3 -55 2 -57 -23 -57 -24 0 -25 3 -25 53 0 58 5 69 30 65 11 -2 16 -18 18
-61z m102 3 c0 -53 -2 -60 -20 -60 -18 0 -20 7 -20 60 0 53 2 60 20 60 18 0
20 -7 20 -60z m100 0 c0 -53 -2 -60 -20 -60 -18 0 -20 7 -20 60 0 53 2 60 20
60 18 0 20 -7 20 -60z m110 -1 c0 -57 -1 -60 -22 -57 -19 2 -24 10 -26 47 -4
55 2 71 28 71 18 0 20 -6 20 -61z m100 1 c0 -53 -2 -60 -20 -60 -18 0 -20 7
-20 60 0 53 2 60 20 60 18 0 20 -7 20 -60z m100 0 c0 -53 -2 -60 -20 -60 -18
0 -20 7 -20 60 0 53 2 60 20 60 18 0 20 -7 20 -60z m110 0 c0 -53 -2 -60 -20
-60 -18 0 -20 7 -20 60 0 53 2 60 20 60 18 0 20 -7 20 -60z m100 0 c0 -53 -2
-60 -20 -60 -18 0 -20 7 -20 60 0 53 2 60 20 60 18 0 20 -7 20 -60z m-2700
-105 c0 -16 -6 -25 -15 -25 -9 0 -15 9 -15 25 0 16 6 25 15 25 9 0 15 -9 15
-25z m110 0 c0 -20 -5 -25 -25 -25 -20 0 -25 5 -25 25 0 20 5 25 25 25 20 0
25 -5 25 -25z m100 0 c0 -18 -5 -25 -20 -25 -15 0 -20 7 -20 25 0 18 5 25 20
25 15 0 20 -7 20 -25z m110 0 c0 -20 -5 -25 -25 -25 -20 0 -25 5 -25 25 0 20
5 25 25 25 20 0 25 -5 25 -25z m100 0 c0 -18 -5 -25 -20 -25 -15 0 -20 7 -20
25 0 18 5 25 20 25 15 0 20 -7 20 -25z m100 0 c0 -18 -5 -25 -20 -25 -15 0
-20 7 -20 25 0 18 5 25 20 25 15 0 20 -7 20 -25z m110 0 c0 -20 -5 -25 -25
-25 -20 0 -25 5 -25 25 0 20 5 25 25 25 20 0 25 -5 25 -25z m100 0 c0 -18 -5
-25 -20 -25 -15 0 -20 7 -20 25 0 18 5 25 20 25 15 0 20 -7 20 -25z m100 0 c0
-18 -5 -25 -20 -25 -15 0 -20 7 -20 25 0 18 5 25 20 25 15 0 20 -7 20 -25z
m110 0 c0 -20 -5 -25 -25 -25 -20 0 -25 5 -25 25 0 20 5 25 25 25 20 0 25 -5
25 -25z m100 0 c0 -18 -5 -25 -20 -25 -15 0 -20 7 -20 25 0 18 5 25 20 25 15
0 20 -7 20 -25z m110 0 c0 -20 -5 -25 -25 -25 -20 0 -25 5 -25 25 0 20 5 25
25 25 20 0 25 -5 25 -25z m100 0 c0 -18 -5 -25 -20 -25 -15 0 -20 7 -20 25 0
18 5 25 20 25 15 0 20 -7 20 -25z m100 0 c0 -18 -5 -25 -20 -25 -15 0 -20 7
-20 25 0 18 5 25 20 25 15 0 20 -7 20 -25z m110 0 c0 -20 -5 -25 -25 -25 -20
0 -25 5 -25 25 0 20 5 25 25 25 20 0 25 -5 25 -25z m100 0 c0 -18 -5 -25 -20
-25 -15 0 -20 7 -20 25 0 18 5 25 20 25 15 0 20 -7 20 -25z m110 0 c0 -20 -5
-25 -25 -25 -20 0 -25 5 -25 25 0 20 5 25 25 25 20 0 25 -5 25 -25z m100 0 c0
-18 -5 -25 -20 -25 -15 0 -20 7 -20 25 0 18 5 25 20 25 15 0 20 -7 20 -25z
m100 0 c0 -18 -5 -25 -20 -25 -15 0 -20 7 -20 25 0 18 5 25 20 25 15 0 20 -7
20 -25z m110 0 c0 -20 -5 -25 -25 -25 -20 0 -25 5 -25 25 0 20 5 25 25 25 20
0 25 -5 25 -25z m100 0 c0 -18 -5 -25 -20 -25 -15 0 -20 7 -20 25 0 18 5 25
20 25 15 0 20 -7 20 -25z m100 0 c0 -18 -5 -25 -20 -25 -15 0 -20 7 -20 25 0
18 5 25 20 25 15 0 20 -7 20 -25z m110 0 c0 -20 -5 -25 -25 -25 -20 0 -25 5
-25 25 0 20 5 25 25 25 20 0 25 -5 25 -25z m100 0 c0 -18 -5 -25 -20 -25 -15
0 -20 7 -20 25 0 18 5 25 20 25 15 0 20 -7 20 -25z m108 3 c-2 -15 -11 -24
-25 -26 -19 -3 -23 1 -23 22 0 21 5 26 26 26 21 0 25 -4 22 -22z m102 -3 c0
-29 -34 -36 -44 -9 -8 21 1 34 25 34 14 0 19 -7 19 -25z m100 0 c0 -18 -5 -25
-20 -25 -15 0 -20 7 -20 25 0 18 5 25 20 25 15 0 20 -7 20 -25z m120 0 c0 -21
-5 -25 -30 -25 -25 0 -30 4 -30 25 0 21 5 25 30 25 25 0 30 -4 30 -25z m-3500
-29 c0 -23 -5 -25 -87 -36 -49 -7 -106 -16 -128 -21 -65 -14 -85 -12 -85 11 0
11 6 22 13 24 12 4 251 43 275 45 6 1 12 -10 12 -23z m4279 -6 c47 -13 99 -66
107 -108 14 -72 -43 -162 -102 -162 -35 0 -30 25 11 49 35 20 55 54 55 91 0
52 -103 112 -165 96 -76 -19 -103 -115 -45 -158 32 -23 40 -58 14 -58 -9 0
-31 15 -50 34 -29 29 -34 41 -34 80 0 114 88 171 209 136z m-3489 -145 c0
-128 -1 -135 -20 -135 -19 0 -20 7 -20 135 0 128 1 135 20 135 19 0 20 -7 20
-135z m100 0 c0 -128 -1 -135 -20 -135 -19 0 -20 7 -20 135 0 128 1 135 20
135 19 0 20 -7 20 -135z m110 0 l0 -135 -25 0 -25 0 0 135 0 135 25 0 25 0 0
-135z m100 110 c0 -18 -5 -25 -20 -25 -15 0 -20 7 -20 25 0 18 5 25 20 25 15
0 20 -7 20 -25z m100 0 c0 -18 -5 -25 -20 -25 -15 0 -20 7 -20 25 0 18 5 25
20 25 15 0 20 -7 20 -25z m110 0 c0 -18 -5 -25 -19 -25 -11 0 -23 5 -26 10
-11 18 3 40 25 40 15 0 20 -7 20 -25z m100 0 c0 -18 -5 -25 -20 -25 -15 0 -20
7 -20 25 0 18 5 25 20 25 15 0 20 -7 20 -25z m100 0 c0 -18 -5 -25 -20 -25
-15 0 -20 7 -20 25 0 18 5 25 20 25 15 0 20 -7 20 -25z m110 0 c0 -18 -5 -25
-20 -25 -15 0 -20 7 -20 25 0 18 5 25 20 25 15 0 20 -7 20 -25z m100 0 c0 -18
-5 -25 -20 -25 -15 0 -20 7 -20 25 0 18 5 25 20 25 15 0 20 -7 20 -25z m110
-110 l0 -135 -25 0 -25 0 0 135 0 135 25 0 25 0 0 -135z m100 0 c0 -128 -1
-135 -20 -135 -19 0 -20 7 -20 135 0 128 1 135 20 135 19 0 20 -7 20 -135z
m100 0 c0 -128 -1 -135 -20 -135 -19 0 -20 7 -20 135 0 128 1 135 20 135 19 0
20 -7 20 -135z m110 0 l0 -135 -25 0 -25 0 0 135 0 135 25 0 25 0 0 -135z
m100 0 c0 -128 -1 -135 -20 -135 -19 0 -20 7 -20 135 0 128 1 135 20 135 19 0
20 -7 20 -135z m110 0 l0 -135 -25 0 -25 0 0 135 0 135 25 0 25 0 0 -135z
m100 0 c0 -128 -1 -135 -20 -135 -19 0 -20 7 -20 135 0 128 1 135 20 135 19 0
20 -7 20 -135z m100 0 c0 -128 -1 -135 -20 -135 -19 0 -20 7 -20 135 0 128 1
135 20 135 19 0 20 -7 20 -135z m110 0 l0 -135 -25 0 -25 0 0 135 0 135 25 0
25 0 0 -135z m100 0 c0 -128 -1 -135 -20 -135 -19 0 -20 7 -20 135 0 128 1
135 20 135 19 0 20 -7 20 -135z m100 0 c0 -128 -1 -135 -20 -135 -19 0 -20 7
-20 135 0 128 1 135 20 135 19 0 20 -7 20 -135z m110 -1 c0 -135 0 -135 -22
-132 -22 3 -23 7 -26 122 -1 66 0 126 2 133 3 7 15 13 26 13 19 0 20 -6 20
-136z m100 1 c0 -128 -1 -135 -20 -135 -19 0 -20 7 -20 135 0 128 1 135 20
135 19 0 20 -7 20 -135z m100 0 c0 -128 -1 -135 -20 -135 -19 0 -20 7 -20 135
0 128 1 135 20 135 19 0 20 -7 20 -135z m110 0 c0 -128 -1 -135 -20 -135 -19
0 -20 7 -20 135 0 128 1 135 20 135 19 0 20 -7 20 -135z m100 0 c0 -128 -1
-135 -20 -135 -19 0 -20 7 -20 135 0 128 1 135 20 135 19 0 20 -7 20 -135z
m-3385 53 c34 -27 55 -75 55 -128 0 -33 -6 -48 -29 -71 -16 -16 -34 -29 -41
-29 -22 0 -20 29 4 53 44 44 24 147 -28 147 -35 0 -43 -17 -48 -103 -6 -93
-22 -117 -79 -117 -88 0 -133 144 -62 200 14 11 30 20 34 20 17 0 9 -40 -12
-61 -17 -17 -20 -29 -16 -56 8 -46 25 -65 56 -61 25 3 26 7 32 78 8 98 15 117
47 135 37 20 55 18 87 -7z m1725 -98 c0 -113 -1 -120 -20 -120 -19 0 -20 7
-20 105 l0 105 -290 0 -290 0 0 -106 c0 -104 0 -105 -22 -102 -22 3 -23 8 -26
107 -1 58 0 111 2 118 5 11 68 13 336 13 l330 -1 0 -119z m-1332 -142 c-3
-221 -3 -223 -25 -226 -14 -2 -26 4 -33 17 -9 19 -8 21 15 21 l25 0 0 145 0
145 -80 0 c-89 0 -94 4 -106 79 l-7 41 107 0 106 0 -2 -222z m292 172 c0 -47
-2 -50 -25 -50 -25 0 -25 -1 -25 -80 0 -79 0 -80 25 -80 18 0 25 -5 25 -20 0
-19 -7 -20 -135 -20 l-135 0 0 143 c0 79 3 147 7 150 3 4 64 7 135 7 l128 0 0
-50z m980 -50 l0 -100 -272 2 -273 3 -3 84 c-2 46 -1 90 2 98 4 10 60 13 276
13 l270 0 0 -100z m2040 42 c0 -48 0 -49 -30 -44 l-30 4 0 -81 0 -81 30 0 c23
0 30 -4 30 -20 0 -19 -7 -20 -130 -20 -123 0 -130 1 -130 20 0 16 7 20 35 20
l35 0 0 74 0 75 -32 3 c-32 3 -33 5 -36 51 l-3 47 130 0 131 0 0 -48z m215 12
c-15 -82 -17 -84 -95 -84 l-70 0 0 -144 c0 -102 3 -145 12 -148 17 -6 0 -28
-23 -28 -18 0 -19 9 -19 220 l0 220 101 0 101 0 -7 -36z m287 -168 c51 -19
100 -37 109 -41 17 -6 15 -45 -1 -45 -5 0 -50 16 -100 35 -97 37 -120 41 -149
25 -25 -13 -45 -64 -37 -96 7 -27 26 -37 162 -88 61 -23 71 -30 67 -46 -3 -11
-9 -20 -13 -20 -4 0 -52 16 -106 36 -148 55 -177 96 -137 195 16 41 62 79 95
79 9 0 59 -15 110 -34z m-3522 -1 c0 -16 -6 -25 -15 -25 -9 0 -15 9 -15 25 0
16 6 25 15 25 9 0 15 -9 15 -25z m110 0 c0 -20 -5 -25 -25 -25 -18 0 -25 5
-25 18 0 24 8 32 32 32 13 0 18 -7 18 -25z m100 0 c0 -18 -5 -25 -20 -25 -15
0 -20 7 -20 25 0 18 5 25 20 25 15 0 20 -7 20 -25z m110 0 c0 -20 -5 -25 -25
-25 -20 0 -25 5 -25 25 0 20 5 25 25 25 20 0 25 -5 25 -25z m830 0 c0 -20 -5
-25 -25 -25 -20 0 -25 5 -25 25 0 20 5 25 25 25 20 0 25 -5 25 -25z m100 0 c0
-18 -5 -25 -20 -25 -15 0 -20 7 -20 25 0 18 5 25 20 25 15 0 20 -7 20 -25z
m100 0 c0 -18 -5 -25 -20 -25 -15 0 -20 7 -20 25 0 18 5 25 20 25 15 0 20 -7
20 -25z m110 0 c0 -20 -5 -25 -25 -25 -20 0 -25 5 -25 25 0 20 5 25 25 25 20
0 25 -5 25 -25z m100 0 c0 -18 -5 -25 -20 -25 -15 0 -20 7 -20 25 0 18 5 25
20 25 15 0 20 -7 20 -25z m110 0 c0 -20 -5 -25 -25 -25 -20 0 -25 5 -25 25 0
20 5 25 25 25 20 0 25 -5 25 -25z m100 0 c0 -18 -5 -25 -20 -25 -15 0 -20 7
-20 25 0 18 5 25 20 25 15 0 20 -7 20 -25z m100 0 c0 -18 -5 -25 -20 -25 -15
0 -20 7 -20 25 0 18 5 25 20 25 15 0 20 -7 20 -25z m110 0 c0 -20 -5 -25 -25
-25 -20 0 -25 5 -25 25 0 20 5 25 25 25 20 0 25 -5 25 -25z m100 0 c0 -18 -5
-25 -20 -25 -15 0 -20 7 -20 25 0 18 5 25 20 25 15 0 20 -7 20 -25z m100 0 c0
-18 -5 -25 -20 -25 -15 0 -20 7 -20 25 0 18 5 25 20 25 15 0 20 -7 20 -25z
m110 0 c0 -20 -5 -25 -25 -25 -18 0 -25 5 -25 18 0 24 8 32 32 32 13 0 18 -7
18 -25z m100 0 c0 -18 -5 -25 -20 -25 -15 0 -20 7 -20 25 0 18 5 25 20 25 15
0 20 -7 20 -25z m108 -2 c3 -19 -1 -23 -22 -23 -21 0 -26 5 -26 26 0 21 4 25
23 22 14 -2 23 -11 25 -25z m102 2 c0 -20 -5 -25 -24 -25 -18 0 -23 5 -21 23
3 28 2 27 25 27 15 0 20 -7 20 -25z m100 0 c0 -18 -5 -25 -20 -25 -15 0 -20 7
-20 25 0 18 5 25 20 25 15 0 20 -7 20 -25z m110 0 c0 -20 -5 -25 -25 -25 -20
0 -25 5 -25 25 0 20 5 25 25 25 20 0 25 -5 25 -25z m-3406 -11 c8 -22 1 -31
-45 -55 -22 -11 -43 -27 -46 -35 -5 -14 22 -100 36 -116 3 -3 32 4 63 17 56
23 57 23 64 3 3 -11 4 -21 2 -23 -1 -2 -65 -28 -140 -58 l-138 -54 -30 78
c-36 95 -37 122 -5 154 26 26 88 35 101 14 4 -7 11 -2 18 12 9 19 87 76 107
78 4 1 10 -6 13 -15z m1636 1 c0 -13 -44 -15 -335 -15 -184 0 -335 4 -335 8 0
5 3 12 7 15 3 4 154 7 335 7 285 0 328 -2 328 -15z m-930 -50 c0 -8 -9 -15
-20 -15 -11 0 -20 7 -20 15 0 8 9 15 20 15 11 0 20 -7 20 -15z m100 0 c0 -8
-9 -15 -20 -15 -11 0 -20 7 -20 15 0 8 9 15 20 15 11 0 20 -7 20 -15z m110 0
c0 -9 -9 -15 -25 -15 -16 0 -25 6 -25 15 0 9 9 15 25 15 16 0 25 -6 25 -15z
m720 0 c0 -13 -44 -15 -335 -15 -291 0 -335 2 -335 15 0 13 44 15 335 15 291
0 335 -2 335 -15z m108 -2 c2 -8 -6 -13 -22 -13 -17 0 -26 5 -26 16 0 19 41
16 48 -3z m102 2 c0 -8 -9 -15 -20 -15 -11 0 -20 7 -20 15 0 8 9 15 20 15 11
0 20 -7 20 -15z m100 0 c0 -8 -9 -15 -20 -15 -11 0 -20 7 -20 15 0 8 9 15 20
15 11 0 20 -7 20 -15z m110 0 c0 -9 -9 -15 -25 -15 -24 0 -32 10 -18 23 12 13
43 7 43 -8z m100 0 c0 -8 -9 -15 -20 -15 -11 0 -20 7 -20 15 0 8 9 15 20 15
11 0 20 -7 20 -15z m108 -2 c2 -8 -6 -13 -22 -13 -17 0 -26 5 -26 16 0 19 41
16 48 -3z m102 2 c0 -8 -9 -15 -20 -15 -11 0 -20 7 -20 15 0 8 9 15 20 15 11
0 20 -7 20 -15z m100 0 c0 -8 -9 -15 -20 -15 -11 0 -20 7 -20 15 0 8 9 15 20
15 11 0 20 -7 20 -15z m110 0 c0 -9 -9 -15 -25 -15 -24 0 -32 10 -18 23 12 13
43 7 43 -8z m100 0 c0 -8 -9 -15 -20 -15 -11 0 -20 7 -20 15 0 8 9 15 20 15
11 0 20 -7 20 -15z m100 0 c0 -8 -9 -15 -20 -15 -11 0 -20 7 -20 15 0 8 9 15
20 15 11 0 20 -7 20 -15z m110 0 c0 -16 -35 -21 -44 -6 -8 12 4 21 26 21 10 0
18 -7 18 -15z m100 0 c0 -8 -9 -15 -20 -15 -11 0 -20 7 -20 15 0 8 9 15 20 15
11 0 20 -7 20 -15z m100 0 c0 -8 -9 -15 -20 -15 -11 0 -20 7 -20 15 0 8 9 15
20 15 11 0 20 -7 20 -15z m110 0 c0 -8 -9 -15 -20 -15 -11 0 -20 7 -20 15 0 8
9 15 20 15 11 0 20 -7 20 -15z m100 0 c0 -8 -9 -15 -20 -15 -11 0 -20 7 -20
15 0 8 9 15 20 15 11 0 20 -7 20 -15z m50 -55 c0 -20 -9 -20 -1347 -22 -742
-2 -1356 -1 -1365 1 -10 2 -18 12 -18 22 0 19 35 19 1365 19 1357 0 1365 0
1365 -20z m-2750 -15 c0 -18 5 -25 20 -25 19 0 20 -7 20 -190 l0 -190 -94 0
-95 0 -60 87 -61 86 0 129 0 128 135 0 135 0 0 -25z m3020 -96 l0 -121 -65
-94 -66 -94 -89 0 -90 0 0 190 0 190 25 0 c20 0 25 5 25 25 l0 25 130 0 130 0
0 -121z m-322 -116 l-3 -188 -1312 -3 -1313 -2 0 190 0 190 1315 0 1315 0 -2
-187z m691 51 c69 -37 128 -68 130 -70 7 -6 -61 -128 -87 -156 -15 -17 -36
-28 -52 -28 -31 0 -69 25 -79 52 -5 14 -18 21 -42 23 -19 1 -53 11 -77 21 -39
17 -42 21 -29 38 12 17 15 17 51 2 66 -27 83 -22 111 34 14 27 25 52 25 54 0
3 -22 17 -50 31 -46 23 -60 42 -43 58 10 10 7 11 142 -59z m-3679 9 l0 -38
-19 30 c-20 32 -18 45 5 45 10 0 14 -11 14 -37z m-157 -58 c26 -47 47 -89 47
-94 0 -10 -258 -156 -264 -150 -2 2 -25 44 -51 93 -38 69 -45 90 -34 96 18 12
20 10 59 -64 19 -36 39 -66 44 -66 5 0 24 9 42 21 l34 21 -36 65 c-28 50 -34
67 -25 76 15 14 30 -3 67 -75 13 -27 27 -48 30 -48 5 0 63 32 82 46 3 2 -26
55 -60 113 -17 27 -19 35 -7 42 8 5 16 9 19 9 3 0 26 -39 53 -85z m3494 53
c-3 -7 -5 -2 -5 12 0 14 2 19 5 13 2 -7 2 -19 0 -25z m198 -271 c61 -43 111
-83 113 -87 2 -6 -93 -148 -114 -169 -2 -2 -10 2 -18 8 -13 11 -8 22 34 79
l49 67 -22 18 c-50 40 -51 40 -96 -24 -39 -55 -71 -76 -71 -46 0 8 18 40 41
71 23 32 39 58 38 60 -2 1 -20 15 -40 30 l-37 27 -47 -66 c-29 -42 -53 -65
-63 -63 -8 2 -15 7 -15 11 3 21 119 175 128 169 5 -3 60 -42 120 -85z m-3551
-6 c17 -19 17 -21 -6 -53 -14 -18 -55 -77 -93 -131 -61 -90 -69 -98 -83 -83
-17 17 -23 7 97 175 25 36 39 62 31 59 -8 -3 -67 -22 -129 -42 -108 -36 -116
-37 -128 -20 -7 10 -11 19 -9 21 3 3 284 90 297 92 3 1 14 -8 23 -18z m3176
-117 c0 -3 -7 -12 -15 -21 -20 -19 -11 -30 10 -13 12 10 16 9 21 -3 5 -14 10
-14 42 3 42 23 61 25 97 8 28 -12 30 -19 14 -35 -8 -8 -20 -8 -35 -3 -62 24
-146 -74 -102 -118 19 -19 40 -14 96 23 75 51 104 55 142 17 36 -36 37 -54 7
-106 -36 -64 -106 -90 -156 -57 -27 17 5 40 45 34 44 -7 84 26 84 68 0 50 -27
52 -100 8 -79 -47 -119 -51 -149 -13 -24 31 -27 68 -7 105 13 26 13 27 -18 25
-25 -1 -32 3 -34 22 -4 25 23 62 45 62 7 0 13 -3 13 -6z m-3061 -28 c9 -10
-13 -34 -103 -114 -106 -95 -115 -100 -129 -84 -15 16 -8 24 96 115 62 53 115
97 118 97 4 0 12 -6 18 -14z m70 -80 c12 -14 6 -56 -29 -236 -4 -25 -7 -46 -5
-48 1 -2 38 36 81 83 68 75 80 84 92 71 13 -13 8 -23 -46 -83 -33 -37 -80 -87
-104 -110 -37 -36 -45 -40 -60 -29 -16 12 -16 19 2 117 10 57 22 120 25 139 6
34 5 33 -75 -49 -72 -74 -83 -82 -96 -69 -14 13 -3 28 86 121 56 59 106 107
110 107 4 0 13 -6 19 -14z m2942 -225 l84 -98 37 29 c33 27 58 31 58 9 0 -5
-41 -43 -91 -86 -71 -61 -93 -75 -100 -64 -13 20 -12 21 26 52 l36 28 -28 34
c-15 19 -55 66 -87 105 -47 57 -57 73 -45 81 8 5 17 9 20 9 3 0 44 -44 90 -99z
m-2653 -11 c45 -28 74 -77 68 -117 -5 -37 -124 -213 -143 -213 -31 0 -21 33
36 113 72 100 78 131 30 171 -56 47 -80 33 -175 -102 -45 -65 -52 -71 -68 -59
-17 12 -14 20 44 100 34 48 73 96 87 107 33 25 79 25 121 0z m2521 -118 c45
-62 81 -117 81 -122 0 -9 -4 -11 -29 -14 -5 -1 -48 53 -95 118 -77 108 -83
121 -68 132 20 15 12 24 111 -114z"/>
<path d="M4515 3623 c-49 -25 -92 -47 -93 -48 -9 -8 12 -49 40 -81 36 -40 69
-44 128 -14 46 23 70 55 70 90 0 27 -31 92 -46 96 -5 2 -49 -18 -99 -43z"/>
<path d="M430 3490 c0 -3 21 -24 47 -46 l47 -42 18 40 c10 22 18 42 18 43 0 2
-29 5 -65 7 -36 1 -65 1 -65 -2z"/>
<path d="M4838 2803 c-37 -4 -38 -6 -38 -43 0 -70 27 -108 66 -93 8 3 19 15
23 27 9 24 2 117 -8 114 -3 -1 -23 -3 -43 -5z"/>
<path d="M4696 2793 c-38 -4 -38 -5 -32 -41 3 -20 6 -47 6 -59 0 -27 25 -53
50 -53 34 0 51 40 44 104 -4 32 -11 55 -18 54 -6 -1 -28 -3 -50 -5z"/>
<path d="M290 2691 l-55 -18 58 -27 c32 -14 60 -26 62 -26 3 0 5 20 5 45 0 25
-3 45 -7 44 -5 0 -33 -8 -63 -18z"/>
<path d="M940 1940 l0 -80 40 0 40 0 0 80 0 80 -40 0 -40 0 0 -80z"/>
<path d="M1050 1940 l0 -80 40 0 40 0 0 80 0 80 -40 0 -40 0 0 -80z"/>
<path d="M4040 1940 l0 -80 45 0 45 0 0 80 0 80 -45 0 -45 0 0 -80z"/>
<path d="M386 1774 c-9 -8 -16 -22 -16 -30 0 -16 30 -95 40 -107 5 -6 62 13
89 30 6 4 -30 87 -46 106 -20 21 -47 22 -67 1z"/>
<path d="M1320 1616 l0 -116 40 0 41 0 -3 113 -3 112 -37 3 -38 3 0 -115z"/>
<path d="M1440 1615 l0 -115 40 0 40 0 0 115 0 115 -40 0 -40 0 0 -115z"/>
<path d="M1570 1615 l0 -115 35 0 35 0 0 115 0 115 -35 0 -35 0 0 -115z"/>
<path d="M1690 1615 l0 -115 35 0 35 0 0 115 0 115 -35 0 -35 0 0 -115z"/>
<path d="M1810 1615 l0 -115 40 0 40 0 0 115 0 115 -40 0 -40 0 0 -115z"/>
<path d="M1930 1615 l0 -115 40 0 40 0 0 115 0 115 -40 0 -40 0 0 -115z"/>
<path d="M2057 1723 c-4 -3 -7 -55 -7 -115 l0 -108 40 0 40 0 0 115 0 115 -33
0 c-19 0 -37 -3 -40 -7z"/>
<path d="M2180 1615 l0 -115 35 0 35 0 0 115 0 115 -35 0 -35 0 0 -115z"/>
<path d="M2300 1615 l0 -115 40 0 40 0 0 115 0 115 -40 0 -40 0 0 -115z"/>
<path d="M2420 1615 l0 -115 40 0 40 0 0 115 0 115 -40 0 -40 0 0 -115z"/>
<path d="M2550 1615 l0 -115 35 0 35 0 0 115 0 115 -35 0 -35 0 0 -115z"/>
<path d="M2670 1615 l0 -115 35 0 35 0 0 115 0 115 -35 0 -35 0 0 -115z"/>
<path d="M2790 1615 l0 -115 40 0 40 0 0 115 0 115 -40 0 -40 0 0 -115z"/>
<path d="M2917 1723 c-4 -3 -7 -55 -7 -115 l0 -108 40 0 40 0 0 115 0 115 -33
0 c-19 0 -37 -3 -40 -7z"/>
<path d="M3040 1615 l0 -115 35 0 35 0 0 115 0 115 -35 0 -35 0 0 -115z"/>
<path d="M3160 1615 l0 -115 38 0 37 0 -3 115 -3 115 -35 0 -34 0 0 -115z"/>
<path d="M3280 1615 l0 -115 40 0 40 0 0 115 0 115 -40 0 -40 0 0 -115z"/>
<path d="M3400 1615 l0 -115 40 0 40 0 0 115 0 115 -40 0 -40 0 0 -115z"/>
<path d="M3530 1615 l0 -115 35 0 35 0 0 115 0 115 -35 0 -35 0 0 -115z"/>
<path d="M3650 1616 l0 -116 40 0 41 0 -3 113 -3 112 -37 3 -38 3 0 -115z"/>
<path d="M3770 1615 l0 -115 40 0 40 0 0 115 0 115 -40 0 -40 0 0 -115z"/>
<path d="M4545 1520 c-28 -56 -31 -82 -11 -99 30 -25 65 -9 96 46 l30 52 -45
25 -45 25 -25 -49z"/>
<path d="M1948 1282 l-78 -3 0 -148 c0 -227 25 -282 143 -312 58 -14 164 -6
206 15 79 41 101 109 101 311 l0 135 -85 0 -85 0 0 -158 c0 -172 -3 -182 -54
-182 -59 0 -61 4 -66 182 l-5 163 -77 -3z m72 -167 c0 -142 2 -157 20 -175 30
-30 83 -27 109 6 19 24 21 40 21 175 l0 149 65 0 65 0 0 -142 c0 -79 -5 -160
-10 -180 -25 -89 -93 -124 -226 -116 -80 5 -109 19 -148 72 -19 25 -21 44 -24
197 l-3 169 65 0 66 0 0 -155z"/>
<path d="M2380 1050 l0 -230 80 0 80 0 0 69 0 68 75 6 c130 10 185 58 185 162
0 63 -26 107 -79 135 -35 17 -59 20 -191 20 l-150 0 0 -230z m341 193 c46 -29
74 -88 66 -140 -14 -83 -73 -123 -184 -123 l-73 0 0 -70 0 -70 -65 0 -65 0 0
216 0 216 143 -3 c126 -4 146 -7 178 -26z"/>
<path d="M2530 1125 l0 -55 53 0 c60 0 77 12 77 51 0 37 -33 59 -87 59 l-43 0
0 -55z m110 20 c28 -34 -14 -71 -71 -63 -20 2 -25 10 -27 41 l-3 37 44 0 c27
0 49 -6 57 -15z"/>
<path d="M2840 1049 l0 -231 158 4 c136 3 162 7 197 25 22 12 45 30 51 40 32
53 23 138 -17 167 -20 14 -20 14 0 47 39 63 23 127 -38 159 -35 18 -59 20
-196 20 l-155 0 0 -231z m298 212 c61 -12 92 -44 92 -96 0 -33 -6 -48 -31 -73
-21 -22 -26 -32 -16 -32 8 0 27 -14 41 -31 53 -62 20 -156 -62 -179 -20 -5
-97 -10 -169 -10 l-133 0 0 215 0 215 118 0 c64 -1 136 -5 160 -9z"/>
<path d="M2990 1055 l0 -125 58 0 c62 0 82 11 82 46 0 31 -20 44 -79 51 -49 6
-52 8 -49 32 3 22 9 27 43 31 54 8 65 16 65 50 0 33 -14 40 -76 40 l-44 0 0
-125z m105 80 c0 -17 -7 -20 -45 -20 -39 0 -45 3 -48 23 -3 22 -1 23 45 20 40
-3 48 -6 48 -23z m-1 -131 c26 -10 20 -53 -8 -60 -61 -15 -99 9 -82 52 6 14
60 19 90 8z"/>
<path d="M2115 504 c-12 -19 -24 -24 -55 -24 -33 0 -40 -4 -41 -20 -1 -11 -2
-25 -3 -32 -1 -6 14 -16 33 -20 28 -8 32 -13 27 -31 -18 -68 -28 -139 -20
-146 5 -5 25 -11 45 -15 l36 -6 27 132 c37 178 37 170 -1 179 -27 5 -35 3 -48
-17z"/>
<path d="M2934 511 c-66 -30 -81 -108 -27 -140 17 -10 17 -12 1 -21 -27 -16
-23 -73 6 -107 21 -24 31 -28 82 -27 131 0 208 95 135 163 -21 20 -27 32 -20
42 16 25 10 59 -16 84 -30 31 -100 34 -161 6z m104 -68 c4 -26 -29 -47 -58
-38 -22 7 -28 50 -7 59 28 12 62 1 65 -21z m31 -117 c7 -41 -69 -63 -89 -27
-7 15 -6 24 6 36 23 22 78 16 83 -9z"/>
<path d="M2335 481 c-49 -21 -64 -83 -30 -121 16 -17 16 -20 2 -20 -20 0 -47
-38 -47 -67 0 -13 13 -37 29 -55 27 -30 34 -33 102 -36 87 -4 133 17 142 64 6
34 -7 72 -28 81 -14 5 -13 8 5 25 30 28 24 84 -12 111 -30 23 -128 33 -163 18z
m103 -60 c8 -5 12 -17 10 -27 -4 -25 -65 -33 -74 -10 -14 37 27 61 64 37z m2
-126 c26 -31 -9 -62 -55 -51 -51 13 -39 66 15 66 15 0 33 -7 40 -15z"/>
<path d="M2688 463 c-8 -17 -25 -32 -45 -38 -29 -8 -33 -14 -33 -42 0 -31 2
-33 34 -33 30 0 34 -4 40 -31 3 -17 6 -56 6 -86 l0 -54 48 3 c47 3 47 3 45 38
-1 19 -5 88 -8 153 l-7 117 -33 0 c-27 0 -37 -6 -47 -27z"/>
</g>
</svg>
